#!OML:ASF F:\VICON\USERDATA\INSTALL\rory3\rory3.ASF
:FULLY-SPECIFIED
:DEGREES
1549
root -0.0560993 16.9323 -0.585636 34.2479 -28.0278 19.1978
lowerback 52.0072 -4.63352 15.6639
upperback 6.57686 4.02904 8.13992
thorax -12.7835 0.944112 0.342892
lowerneck -26.3279 -10.6636 -9.98007
upperneck 4.39831 -12.0485 6.96815
head 6.39132 -5.59852 2.21529
rclavicle 7.95139e-014 4.85035e-014
rhumerus 50.7906 -23.1782 -59.6431
rradius 23.4952
rwrist 28.4972
rhand -35.8255 -7.0149
rfingers 7.12502
rthumb -8.94141 -36.8054
lclavicle 7.95139e-014 4.85035e-014
lhumerus -7.07148 -21.1488 82.7626
lradius 82.6579
lwrist 2.59222
lhand -20.2804 20.3273
lfingers 7.12502
lthumb 6.0691 50.2203
rfemur -76.6133 -4.41602 -5.06196
rtibia 49.8068
rfoot -7.08542 5.29027
rtoes 14.7665
lfemur -54.0464 13.4342 -43.1039
ltibia 29.594
lfoot -9.2977 10.3177
ltoes -21.0601
1550
root -0.0601925 16.9372 -0.592636 34.1717 -27.6849 19.1589
lowerback 52.0582 -4.45566 15.6803
upperback 6.46706 4.31896 8.37524
thorax -12.9372 1.04664 0.468448
lowerneck -26.3866 -10.5321 -10.0414
upperneck 4.25381 -11.8069 6.69182
head 6.31488 -5.50744 2.17367
rclavicle 8.26944e-014 4.53229e-014
rhumerus 50.2252 -23.5126 -59.0811
rradius 22.8246
rwrist 27.4656
rhand -34.9771 -6.78263
rfingers 7.12502
rthumb -8.12268 -36.6065
lclavicle 8.26944e-014 4.53229e-014
lhumerus -7.27309 -21.1208 83.2949
lradius 82.1264
lwrist 1.9755
lhand -20.3133 20.3922
lfingers 7.12502
lthumb 6.03733 50.2862
rfemur -76.4217 -4.49659 -4.91371
rtibia 49.876
rfoot -7.16892 5.244
rtoes 14.4754
lfemur -53.9721 13.4319 -42.965
ltibia 29.6792
lfoot -9.3121 10.0864
ltoes -21.0191
1551
root -0.0649652 16.9384 -0.599906 34.0831 -27.4283 19.1416
lowerback 52.0509 -4.18116 15.4423
upperback 6.41682 4.58158 8.70115
thorax -13.065 1.14874 0.803327
lowerneck -26.5779 -10.3184 -10.2419
upperneck 4.20288 -11.3984 6.42319
head 6.28388 -5.33249 2.17358
rclavicle -3.18055e-015 -1.90833e-014
rhumerus 49.7161 -23.7183 -58.5834
rradius 22.2909
rwrist 26.9234
rhand -34.7593 -6.44062
rfingers 7.12502
rthumb -7.91249 -36.2725
lclavicle -3.18055e-015 -1.90833e-014
lhumerus -7.59354 -20.8296 84.0112
lradius 81.59
lwrist 1.25003
lhand -20.3782 20.4328
lfingers 7.12502
lthumb 5.97473 50.3285
rfemur -76.2772 -4.52505 -4.84235
rtibia 49.9323
rfoot -7.23498 5.16085
rtoes 14.04
lfemur -53.8936 13.3958 -42.8317
ltibia 29.7549
lfoot -9.30324 9.95905
ltoes -20.9544
1552
root -0.0670582 16.9402 -0.604541 34.0204 -27.1587 18.9598
lowerback 51.9799 -4.39244 15.8091
upperback 6.3381 4.47284 8.35968
thorax -13.0558 1.09949 0.323945
lowerneck -26.5038 -9.89043 -9.79957
upperneck 3.77932 -10.9458 6.3233
head 6.0728 -5.11447 2.15677
rclavicle -3.18055e-015 -7.55382e-014
rhumerus 49.1915 -24.1391 -59.3055
rradius 22.0039
rwrist 27.015
rhand -34.8501 -6.25205
rfingers 7.12502
rthumb -8.00014 -36.0806
lclavicle -3.18055e-015 -7.55382e-014
lhumerus -7.82659 -20.7029 83.7397
lradius 81.1933
lwrist 0.744122
lhand -20.3544 20.4996
lfingers 7.12502
lthumb 5.99764 50.3948
rfemur -76.0862 -4.43683 -4.67451
rtibia 49.9705
rfoot -7.34159 5.0422
rtoes 13.8055
lfemur -53.7911 13.3382 -42.4857
ltibia 29.858
lfoot -9.30041 9.97532
ltoes -20.8983
1553
root -0.0690464 16.9395 -0.611134 33.9523 -26.9418 18.8642
lowerback 51.8985 -3.99056 15.401
upperback 6.31941 4.78503 8.75822
thorax -13.171 1.22868 0.778136
lowerneck -26.5567 -9.47055 -9.53513
upperneck 3.32956 -10.364 5.52424
head 5.80865 -4.89902 1.96025
rclavicle 5.725e-014 3.37934e-014
rhumerus 48.404 -24.0416 -58.7503
rradius 22.1332
rwrist 26.7424
rhand -35.0443 -6.65134
rfingers 7.12502
rthumb -8.18757 -36.4727
lclavicle 5.725e-014 3.37934e-014
lhumerus -8.19088 -20.3387 84.4194
lradius 80.8176
lwrist 0.262305
lhand -20.1815 20.314
lfingers 7.12502
lthumb 6.16461 50.2043
rfemur -75.9431 -4.37092 -4.61113
rtibia 50.0237
rfoot -7.39519 4.93044
rtoes 14.079
lfemur -53.7404 13.3159 -42.2793
ltibia 29.9767
lfoot -9.3093 9.91458
ltoes -20.7579
1554
root -0.0698377 16.9345 -0.620774 33.9042 -26.7535 18.8776
lowerback 51.6721 -3.9192 15.2348
upperback 6.30773 4.72504 8.6436
thorax -13.166 1.21859 0.728599
lowerneck -26.8301 -8.91857 -8.93235
upperneck 3.05715 -9.7368 5.09509
head 5.6632 -4.61302 1.82003
rclavicle 3.49861e-014 1.59028e-014
rhumerus 47.9841 -24.2611 -59.4615
rradius 22.238
rwrist 27.0209
rhand -35.4081 -6.77267
rfingers 7.12502
rthumb -8.53859 -36.58
lclavicle 3.49861e-014 1.59028e-014
lhumerus -8.35091 -20.1472 84.1721
lradius 80.3613
lwrist 0.0298942
lhand -20.102 20.1832
lfingers 7.12502
lthumb 6.2413 50.0713
rfemur -75.8773 -4.40669 -4.60355
rtibia 50.0841
rfoot -7.38943 4.86872
rtoes 14.1987
lfemur -53.7794 13.2842 -42.2312
ltibia 30.1105
lfoot -9.31352 9.81069
ltoes -20.7475
1555
root -0.0698956 16.9323 -0.632202 33.8461 -26.504 18.8464
lowerback 51.4919 -3.89323 15.2392
upperback 6.25483 4.70795 8.47337
thorax -13.1829 1.21779 0.532771
lowerneck -27.1121 -8.44642 -8.50921
upperneck 2.91711 -9.18701 4.91126
head 5.59483 -4.34466 1.77019
rclavicle -8.90555e-014 -9.70069e-014
rhumerus 47.333 -24.5655 -59.9521
rradius 22.5654
rwrist 27.0226
rhand -35.7058 -6.66377
rfingers 7.12502
rthumb -8.82593 -36.4592
lclavicle -8.90555e-014 -9.70069e-014
lhumerus -8.458 -20.1243 83.9236
lradius 79.8482
lwrist -0.15089
lhand -20.3175 20.4517
lfingers 7.12502
lthumb 6.03328 50.3458
rfemur -75.775 -4.43569 -4.54628
rtibia 50.1456
rfoot -7.44801 4.78799
rtoes 14.2904
lfemur -53.7892 13.2442 -42.1122
ltibia 30.2374
lfoot -9.33288 9.69258
ltoes -20.9309
1556
root -0.0690193 16.935 -0.640902 33.7864 -26.2278 18.7119
lowerback 51.3362 -3.82468 15.2903
upperback 6.18242 4.78462 8.38159
thorax -13.2267 1.24875 0.364275
lowerneck -27.1613 -7.97822 -8.13037
upperneck 2.51906 -8.63642 4.60148
head 5.40754 -4.09312 1.69494
rclavicle -6.04305e-014 2.10712e-014
rhumerus 46.0221 -24.5621 -59.5848
rradius 23.4566
rwrist 26.2471
rhand -36.1436 -6.65141
rfingers 7.12502
rthumb -9.24838 -36.4286
lclavicle -6.04305e-014 2.10712e-014
lhumerus -8.72627 -19.9491 83.9794
lradius 79.4331
lwrist -0.446566
lhand -20.3875 20.3885
lfingers 7.12502
lthumb 5.96568 50.2845
rfemur -75.5916 -4.39541 -4.41101
rtibia 50.185
rfoot -7.5985 4.69066
rtoes 14.1487
lfemur -53.7439 13.2151 -41.8652
ltibia 30.3506
lfoot -9.33821 9.62055
ltoes -20.9501
1557
root -0.0657732 16.9386 -0.647085 33.6882 -25.9398 18.5896
lowerback 51.0923 -3.69416 15.3027
upperback 6.18204 4.89622 8.37471
thorax -13.1875 1.30131 0.284076
lowerneck -27.4386 -7.51192 -7.75723
upperneck 2.19769 -8.05787 4.14611
head 5.27095 -3.837 1.56797
rclavicle 3.18055e-015 3.77691e-014
rhumerus 44.5641 -24.4846 -58.9575
rradius 24.6918
rwrist 25.2972
rhand -36.6466 -7.00399
rfingers 7.12502
rthumb -9.73368 -36.7591
lclavicle 3.18055e-015 3.77691e-014
lhumerus -8.93562 -19.7553 84.1948
lradius 78.9937
lwrist -0.834948
lhand -20.1281 19.8229
lfingers 7.12502
lthumb 6.21613 49.7117
rfemur -75.3308 -4.35445 -4.30318
rtibia 50.1878
rfoot -7.68738 4.59745
rtoes 14.1383
lfemur -53.645 13.2 -41.6514
ltibia 30.4346
lfoot -9.3017 9.57134
ltoes -21.0126
